{
  "accessors": [
    {
      "bufferView": 2,
      "componentType": 5126,
      "count": 65532,
      "max": [
        0.09483565390110016,
        0.2101830244064331,
        0.554916501045227
      ],
      "min": [
        -0.09483565390110016,
        -0.11839616298675537,
        -0.5626232624053955
      ],
      "type": "VEC3"
    },
    {
      "bufferView": 2,
      "byteOffset": 786384,
      "componentType": 5126,
      "count": 65532,
      "max": [
        1.0,
        0.9563159346580505,
        0.9742090106010437
      ],
      "min": [
        -1.0,
        -0.9976182579994202,
        -0.9741222262382507
      ],
      "type": "VEC3"
    },
    {
      "bufferView": 3,
      "componentType": 5126,
      "count": 65532,
      "max": [
        0.9860706925392151,
        1.0,
        0.9999991059303284,
        1.0
      ],
      "min": [
        -0.9916597008705139,
        -0.9995184540748596,
        -1.0,
        -1.0
      ],
      "type": "VEC4"
    },
    {
      "bufferView": 1,
      "componentType": 5126,
      "count": 65532,
      "max": [
        0.9984230995178223,
        0.48291900753974915
      ],
      "min": [
        0.0014920467510819435,
        0.0014907222939655185
      ],
      "type": "VEC2"
    },
    {
      "bufferView": 0,
      "componentType": 5125,
      "count": 65832,
      "type": "SCALAR"
    },
    {
      "bufferView": 2,
      "byteOffset": 1572768,
      "componentType": 5126,
      "count": 13255,
      "max": [
        0.09483565390110016,
        0.23720014095306396,
        0.5753458142280579
      ],
      "min": [
        -0.09483565390110016,
        -0.13121092319488525,
        -0.5753458142280579
      ],
      "type": "VEC3"
    },
    {
      "bufferView": 2,
      "byteOffset": 1731828,
      "componentType": 5126,
      "count": 13255,
      "max": [
        1.0,
        1.0,
        1.0
      ],
      "min": [
        -1.0,
        -1.0,
        -1.0
      ],
      "type": "VEC3"
    },
    {
      "bufferView": 3,
      "byteOffset": 1048512,
      "componentType": 5126,
      "count": 13255,
      "max": [
        1.0,
        1.0,
        1.0,
        1.0
      ],
      "min": [
        -0.9933014512062073,
        -0.9991942644119263,
        -1.0,
        1.0
      ],
      "type": "VEC4"
    },
    {
      "bufferView": 1,
      "byteOffset": 524256,
      "componentType": 5126,
      "count": 13255,
      "max": [
        0.9948128461837769,
        0.48474574089050293
      ],
      "min": [
        0.0014917608350515366,
        0.0014931558398529887
      ],
      "type": "VEC2"
    },
    {
      "bufferView": 0,
      "byteOffset": 263328,
      "componentType": 5125,
      "count": 13314,
      "type": "SCALAR"
    },
    {
      "bufferView": 2,
      "byteOffset": 1890888,
      "componentType": 5126,
      "count": 448,
      "max": [
        0.07242938876152039,
        1.0126911401748657,
        0.10109567642211914
      ],
      "min": [
        -0.07242938876152039,
        0.23747038841247559,
        -0.10109567642211914
      ],
      "type": "VEC3"
    },
    {
      "bufferView": 2,
      "byteOffset": 1896264,
      "componentType": 5126,
      "count": 448,
      "max": [
        1.0,
        1.0,
        0.9927868843078613
      ],
      "min": [
        -1.0,
        -1.0,
        -0.9927868843078613
      ],
      "type": "VEC3"
    },
    {
      "bufferView": 3,
      "byteOffset": 1260592,
      "componentType": 5126,
      "count": 448,
      "max": [
        0.9916414618492126,
        1.0,
        1.0,
        1.0
      ],
      "min": [
        -0.9927868843078613,
        -1.9967943444498815e-05,
        -1.0,
        1.0
      ],
      "type": "VEC4"
    },
    {
      "bufferView": 1,
      "byteOffset": 630296,
      "componentType": 5126,
      "count": 448,
      "max": [
        0.9976963996887207,
        0.7224563360214233
      ],
      "min": [
        0.11521033197641373,
        0.10115223377943039
      ],
      "type": "VEC2"
    },
    {
      "bufferView": 0,
      "byteOffset": 316584,
      "componentType": 5125,
      "count": 456,
      "type": "SCALAR"
    },
    {
      "bufferView": 2,
      "byteOffset": 1901640,
      "componentType": 5126,
      "count": 8070,
      "max": [
        0.018356554210186005,
        -0.0006083250045776367,
        0.14783957600593567
      ],
      "min": [
        -0.018356554210186005,
        -4.273995876312256,
        -0.14783957600593567
      ],
      "type": "VEC3"
    },
    {
      "bufferView": 2,
      "byteOffset": 1998480,
      "componentType": 5126,
      "count": 8070,
      "max": [
        0.9999558329582214,
        1.0,
        1.0
      ],
      "min": [
        -0.9999709129333496,
        -0.9979366660118103,
        -1.0
      ],
      "type": "VEC3"
    },
    {
      "bufferView": 3,
      "byteOffset": 1267760,
      "componentType": 5126,
      "count": 8070,
      "max": [
        1.0,
        0.9829108715057373,
        0.6825299263000488,
        1.0
      ],
      "min": [
        -1.0,
        -1.0,
        -0.794002890586853,
        1.0
      ],
      "type": "VEC4"
    },
    {
      "bufferView": 1,
      "byteOffset": 633880,
      "componentType": 5126,
      "count": 8070,
      "max": [
        0.9981179237365723,
        0.5397377014160156
      ],
      "min": [
        0.0014949168544262648,
        0.001497455406934023
      ],
      "type": "VEC2"
    },
    {
      "bufferView": 0,
      "byteOffset": 318408,
      "componentType": 5125,
      "count": 8118,
      "type": "SCALAR"
    },
    {
      "bufferView": 2,
      "byteOffset": 2095320,
      "componentType": 5126,
      "count": 2752,
      "max": [
        0.07659168541431427,
        1.1404253244400024,
        0.10607832670211792
      ],
      "min": [
        -0.07659168541431427,
        1.009353518486023,
        -0.10607832670211792
      ],
      "type": "VEC3"
    },
    {
      "bufferView": 2,
      "byteOffset": 2128344,
      "componentType": 5126,
      "count": 2752,
      "max": [
        1.0,
        1.0,
        1.0
      ],
      "min": [
        -1.0,
        -1.0,
        -1.0
      ],
      "type": "VEC3"
    },
    {
      "bufferView": 3,
      "byteOffset": 1396880,
      "componentType": 5126,
      "count": 2752,
      "max": [
        0.8544395565986633,
        1.0,
        0.9981730580329895,
        1.0
      ],
      "min": [
        -0.9999961256980896,
        -0.9997221827507019,
        -1.0,
        1.0
      ],
      "type": "VEC4"
    },
    {
      "bufferView": 1,
      "byteOffset": 698440,
      "componentType": 5126,
      "count": 2752,
      "max": [
        0.9960432052612305,
        0.13482896983623505
      ],
      "min": [
        0.04307591915130615,
        0.047401975840330124
      ],
      "type": "VEC2"
    },
    {
      "bufferView": 0,
      "byteOffset": 350880,
      "componentType": 5125,
      "count": 2784,
      "type": "SCALAR"
    }
  ],
  "asset": {
    "extras": {
      "author": "re1monsen (https://sketchfab.com/re1monsen)",
      "license": "CC-BY-4.0 (http://creativecommons.org/licenses/by/4.0/)",
      "source": "https://sketchfab.com/3d-models/sword-d9aba2a43102499693b5e987991ca617",
      "title": "Sword"
    },
    "generator": "Sketchfab-16.11.0",
    "version": "2.0"
  },
  "bufferViews": [
    {
      "buffer": 0,
      "byteLength": 362016,
      "name": "floatBufferViews",
      "target": 34963
    },
    {
      "buffer": 0,
      "byteLength": 720456,
      "byteOffset": 362016,
      "byteStride": 8,
      "name": "floatBufferViews",
      "target": 34962
    },
    {
      "buffer": 0,
      "byteLength": 2161368,
      "byteOffset": 1082472,
      "byteStride": 12,
      "name": "floatBufferViews",
      "target": 34962
    },
    {
      "buffer": 0,
      "byteLength": 1440912,
      "byteOffset": 3243840,
      "byteStride": 16,
      "name": "floatBufferViews",
      "target": 34962
    }
  ],
  "buffers": [
    {
      "byteLength": 4684752,
      "uri": "scene.bin"
    }
  ],
  "extensionsUsed": [
    "KHR_materials_specular"
  ],
  "images": [
    {
      "uri": "textures/Material_baseColor.png"
    },
    {
      "uri": "textures/Material_metallicRoughness.png"
    },
    {
      "uri": "textures/Material_normal.png"
    }
  ],
  "materials": [
    {
      "doubleSided": true,
      "extensions": {
        "KHR_materials_specular": {
          "specularColorFactor": [
            1.0,
            1.0,
            1.0
          ],
          "specularFactor": 0.4
        }
      },
      "name": "Material",
      "normalTexture": {
        "index": 2
      },
      "pbrMetallicRoughness": {
        "baseColorTexture": {
          "index": 0
        },
        "metallicRoughnessTexture": {
          "index": 1
        }
      }
    }
  ],
  "meshes": [
    {
      "name": "Object_0",
      "primitives": [
        {
          "attributes": {
            "NORMAL": 1,
            "POSITION": 0,
            "TANGENT": 2,
            "TEXCOORD_0": 3
          },
          "indices": 4,
          "material": 0,
          "mode": 4
        }
      ]
    },
    {
      "name": "Object_1",
      "primitives": [
        {
          "attributes": {
            "NORMAL": 6,
            "POSITION": 5,
            "TANGENT": 7,
            "TEXCOORD_0": 8
          },
          "indices": 9,
          "material": 0,
          "mode": 4
        }
      ]
    },
    {
      "name": "Object_2",
      "primitives": [
        {
          "attributes": {
            "NORMAL": 11,
            "POSITION": 10,
            "TANGENT": 12,
            "TEXCOORD_0": 13
          },
          "indices": 14,
          "material": 0,
          "mode": 4
        }
      ]
    },
    {
      "name": "Object_3",
      "primitives": [
        {
          "attributes": {
            "NORMAL": 16,
            "POSITION": 15,
            "TANGENT": 17,
            "TEXCOORD_0": 18
          },
          "indices": 19,
          "material": 0,
          "mode": 4
        }
      ]
    },
    {
      "name": "Object_4",
      "primitives": [
        {
          "attributes": {
            "NORMAL": 21,
            "POSITION": 20,
            "TANGENT": 22,
            "TEXCOORD_0": 23
          },
          "indices": 24,
          "material": 0,
          "mode": 4
        }
      ]
    }
  ],
  "nodes": [
    {
      "children": [
        1
      ],
      "matrix": [
        -3.017512522946082e-17,
        -0.9999996423721313,
        0.0008637008140792712,
        0.0,
        0.0,
        -0.0008637008140792712,
        -0.9999996423721313,
        0.0,
        1.0,
        0.0,
        0.0,
        0.0,
        0.0,
        0.0,
        0.0,
        1.0
      ],
      "name": "Sketchfab_model"
    },
    {
      "children": [
        2
      ],
      "name": "root"
    },
    {
      "children": [
        3,
        6,
        8,
        10
      ],
      "matrix": [
        1.0,
        0.0,
        0.0,
        0.0,
        0.0,
        2.220446049250313e-16,
        1.0,
        0.0,
        0.0,
        -1.0,
        2.220446049250313e-16,
        0.0,
        0.0,
        0.0,
        0.0,
        1.0
      ],
      "name": "GLTF_SceneRootNode"
    },
    {
      "children": [
        4,
        5
      ],
      "name": "Extruded.002_0"
    },
    {
      "mesh": 0,
      "name": "Object_4"
    },
    {
      "mesh": 1,
      "name": "Object_5"
    },
    {
      "children": [
        7
      ],
      "name": "Solid_106_1"
    },
    {
      "mesh": 2,
      "name": "Object_7"
    },
    {
      "children": [
        9
      ],
      "name": "Solid_46_2"
    },
    {
      "mesh": 3,
      "name": "Object_9"
    },
    {
      "children": [
        11
      ],
      "name": "Solid_99_3"
    },
    {
      "mesh": 4,
      "name": "Object_11"
    }
  ],
  "samplers": [
    {
      "magFilter": 9729,
      "minFilter": 9987,
      "wrapS": 10497,
      "wrapT": 10497
    }
  ],
  "scene": 0,
  "scenes": [
    {
      "name": "Sketchfab_Scene",
      "nodes": [
        0
      ]
    }
  ],
  "textures": [
    {
      "sampler": 0,
      "source": 0
    },
    {
      "sampler": 0,
      "source": 1
    },
    {
      "sampler": 0,
      "source": 2
    }
  ]
}
